<?xml version="1.0" standalone="no"?><!DOCTYPE svg PUBLIC "-//W3C//DTD SVG 1.1//EN" "http://www.w3.org/Graphics/SVG/1.1/DTD/svg11.dtd"><svg t="1540793978823" class="icon" style="" viewBox="0 0 1024 1024" version="1.1" xmlns="http://www.w3.org/2000/svg" p-id="8521" xmlns:xlink="http://www.w3.org/1999/xlink" width="200" height="200"><defs><style type="text/css"></style></defs><path d="M512 12.8L76.8 262.4v499.2L512 1011.2l435.2-249.6V262.4L512 12.8zM627.2 576c-25.6 38.4-70.4 64-115.2 64-25.6 0-44.8-6.4-64-19.2C384 588.8 358.4 512 396.8 448c25.6-38.4 70.4-64 115.2-64 25.6 0 44.8 6.4 64 19.2 32 19.2 51.2 44.8 64 76.8 6.4 32 6.4 64-12.8 96z m-32-204.8c-19.2-12.8-44.8-19.2-64-25.6V64L896 268.8l-249.6 140.8c-12.8-12.8-32-25.6-51.2-38.4z m-102.4-25.6c-44.8 6.4-89.6 32-115.2 70.4L128 268.8 492.8 64v281.6zM358.4 448c-12.8 32-19.2 70.4-6.4 108.8 0 6.4 6.4 19.2 6.4 25.6l-249.6 140.8V300.8L358.4 448z m19.2 160c12.8 19.2 32 32 51.2 44.8 19.2 12.8 44.8 19.2 64 19.2V960L128 755.2l249.6-147.2z m153.6 70.4c44.8-6.4 89.6-32 115.2-64l249.6 140.8L531.2 960v-281.6zM665.6 576c12.8-32 19.2-70.4 6.4-108.8 0-6.4-6.4-19.2-6.4-25.6l249.6-140.8v422.4L665.6 576z" fill="" p-id="8522"></path><path d="M512 448c-25.6 0-44.8 12.8-44.8 38.4 0 12.8 6.4 25.6 19.2 32v38.4c6.4 12.8 12.8 19.2 25.6 19.2s19.2-6.4 19.2-19.2v-38.4c12.8-6.4 25.6-19.2 25.6-32 0-25.6-19.2-38.4-44.8-38.4z" fill="" p-id="8523"></path></svg>