<?xml version="1.0" standalone="no"?><!DOCTYPE svg PUBLIC "-//W3C//DTD SVG 1.1//EN" "http://www.w3.org/Graphics/SVG/1.1/DTD/svg11.dtd"><svg t="1540793461560" class="icon" style="" viewBox="0 0 1024 1024" version="1.1" xmlns="http://www.w3.org/2000/svg" p-id="7804" xmlns:xlink="http://www.w3.org/1999/xlink" width="200" height="200"><defs><style type="text/css"></style></defs><path d="M509.888 786.208a4.32 4.32 0 0 0 2.752 1.024c2.432 0 5.024-1.952 7.104-3.36l9.408-6.752a20.8 20.8 0 0 0 3.456-1.152c0.48 0.224 0.96 0.48 1.44 0.8l2.656 1.6 3.872-5.312-2.656-1.6c-0.064 0-0.16-0.16-0.256-0.16 1.12-2.592 0.736-5.568-1.216-8.608-2.752-4.064-8.768-8.288-14.816-7.808-4.608 0.416-6.624 2.464-7.488 4.128-1.952 3.84 0.704 8.864 2.56 11.776-0.064 0.192-0.224 0.352-0.32 0.512-0.896-0.16-1.856-0.16-2.816-0.32-10.56-1.248-12.576-3.328-12.96-3.904-0.576-0.96 0.48-2.88 1.28-4.672 1.28-2.4 2.816-5.472 0.96-8.352-1.856-2.912-6.112-3.52-9.664-3.872-7.2-0.512-10.496 2.08-11.936 4.32-5.504 8.512 6.272 25.312 8.704 28.64l5.888-3.616c-4.832-6.592-10.88-18.048-8.576-21.76 0.8-1.216 3.328-1.312 5.344-1.12 2.752 0.16 3.872 0.672 4.032 0.48-0.096 0.672-0.736 1.888-1.152 2.752-1.44 2.72-3.392 6.624-1.056 10.304 2.24 3.712 7.552 5.824 17.344 7.136-4.512 6.464-3.168 7.68-1.888 8.896z m70.912-42.304v56.896h-183.936v-234.944h183.936v104.288l5.44-4.8v0.512l14.08-12.704v-105.44h-222.976v271.264h222.976V728.64v0.096l-19.52 15.168z m26.688-88.032l26.624 24.224 12.416-11.328-26.624-24.192-12.416 11.296z m-63.264 57.632l26.624 24.256 60.352-54.944-26.56-24.32-60.416 55.008z m-15.072 37.856l34.08-6.848 3.008-2.592-26.688-24.16-2.816 2.56-7.584 31.04z m-8.544 10.336s0.32-0.256 1.6-0.416h0.32c2.592 0 6.208 2.08 7.904 4.832 0.224 0.352 0.736 1.12 0.8 1.856l-0.48-0.224-4.672 3.392-0.896 0.064 0.256-0.224-1.536-1.984c-2.4-2.88-3.808-6.496-3.296-7.296z m25.6 25.568l0.672-6.464c-18.368-1.44-29.088 12.032-29.568 12.608l5.696 3.712c0.192-0.128 8.8-11.008 23.2-9.856z m11.552 1.28l0.896-6.464-7.008-0.768-0.896 6.432 7.008 0.8z m-115.84-208.864h93.856v12.768H441.92v-12.768z m-28.672 33.12h146.624v7.232h-146.624v-7.232z m0 21.632h146.624v7.232h-146.624v-7.232z m0 22.24h146.624v7.168h-146.624v-7.168z m0 22.496h146.624v7.168h-146.624v-7.168z" p-id="7805"></path><path d="M793.248 510.688c119.488 0 216.224 94.88 216.224 211.84a206.656 206.656 0 0 1-27.552 102.432h-65.632c27.904-25.696 35.296-61.92 35.296-102.432 0-77.984-78.624-158.24-158.304-158.24h-95.84v-88.832c0-97.536-92.64-196.288-192.096-196.288-99.392 0-196.928 98.72-196.928 196.288v88.928H217.28c-79.584 0-161.568 80.192-161.568 158.24 0 77.952 81.984 158.464 161.568 158.464h574.208v53.376H181.248V931.2C79.104 914.368 1.248 827.488 1.248 722.528c0-116.96 96.672-211.84 216.032-211.84 13.44 0 26.592 1.344 39.392 3.776a243.584 243.584 0 0 1-3.392-39.008c0-136.544 112.768-247.2 252-247.2 139.2 0 252.032 110.656 252.032 247.2 0 13.216-1.312 26.272-3.392 39.008a210.336 210.336 0 0 1 39.328-3.776z m-142.112 72.768h-2.56c0.832-1.12 1.6-2.24 2.56-3.392v3.392z m-287.232 0h-2.656v-3.392c0.96 1.056 1.6 2.272 2.656 3.392zM880.992 248.928a215.648 215.648 0 0 1 39.168 158.496l-48.672-2.272a168.384 168.384 0 0 0-30.016-128 172.16 172.16 0 0 0-116.096-68.928l12.768-46.464a219.648 219.648 0 0 1 142.848 87.168z m139.936 159.936l-49.856-1.312A262.624 262.624 0 0 0 922.56 219.2a267.84 267.84 0 0 0-165.248-104.768l13.696-47.392a318.624 318.624 0 0 1 191.36 123.712 311.776 311.776 0 0 1 58.56 218.112z" p-id="7806"></path></svg>