<?xml version="1.0" standalone="no"?><!DOCTYPE svg PUBLIC "-//W3C//DTD SVG 1.1//EN" "http://www.w3.org/Graphics/SVG/1.1/DTD/svg11.dtd"><svg t="1540791877827" class="icon" style="" viewBox="0 0 1024 1024" version="1.1" xmlns="http://www.w3.org/2000/svg" p-id="5954" xmlns:xlink="http://www.w3.org/1999/xlink" width="200" height="200"><defs><style type="text/css"></style></defs><path d="M514.685667 555.560098c-60.119239 0-107.583251 47.462988-107.583251 107.584274 0 50.629097 29.596062 91.762937 77.058027 104.420211l0 164.537404c0 12.657274 14.703887 25.313525 27.360138 25.313525 12.657274 0 27.361161-9.492188 27.361161-25.313525L538.881742 767.564583c47.461965-12.657274 80.222089-53.791114 83.385129-104.420211C622.267894 603.023086 574.804906 555.560098 514.685667 555.560098zM511.520581 716.937532c-28.477588 0-53.791114-25.313525-53.791114-53.792137 0-28.477588 25.313525-53.79009 53.791114-53.79009 28.478612 0 53.792137 25.312502 53.792137 53.79009C565.312718 691.622984 539.999193 716.937532 511.520581 716.937532z" p-id="5955"></path><path d="M742.508419 577.708538c0-37.968753-12.657274-75.93853-37.9708-104.417141-41.133839-47.464011-113.909329-75.940576-196.180078-75.940576-79.104639 0-145.55405 25.313525-189.850929 72.776514-28.478612 31.642674-44.299949 72.777537-47.464011 113.911376-79.104639 18.9854-161.373341 94.928023-161.373341 193.018062s72.776514 167.703513 186.68789 180.359764l450.528973-0.094144 8.280594-3.069919c98.089016-34.806737 151.882176-98.090039 151.882176-177.195701C907.046846 682.130795 834.270333 599.860047 742.508419 577.708538zM746.694765 903.624399 300.542472 903.624399c-44.299949-6.329149-136.060839-28.477588-136.060839-126.56865 0-79.104639 72.776514-142.388964 136.060839-148.71709l25.313525-3.164063 0-25.315572c-3.163039-34.806737 9.492188-69.612451 34.806737-94.926999 34.806737-34.806737 88.597851-53.791114 151.881153-53.791114 69.613474 0 123.404588 18.9854 155.046239 63.284325 22.150486 25.313525 31.642674 56.955176 28.477588 88.597851l-3.164063 22.151509 28.477588 3.164063c79.105662 6.328126 136.060839 72.776514 136.060839 151.882176C857.442078 849.833285 790.99369 887.803062 746.694765 903.624399z" p-id="5956"></path><path d="M932.360372 358.38332c-12.658298 0-25.313525-9.492188-28.477588-22.149463-15.821337-72.776514-72.777537-132.895753-82.269725-139.224902l-3.165086-3.164063c-82.269725-69.612451-170.867576-75.940576-208.837352-72.776514-12.657274 0-25.313525-9.493212-25.313525-22.149463l0 0c-3.163039-15.821337 9.492188-31.642674 25.313525-31.642674 50.628074-3.164063 151.882176 6.329149 246.808152 85.433788 18.986423 15.820314 85.433788 82.269725 104.419188 174.030615C960.83796 339.398944 948.181709 355.219257 932.360372 358.38332L932.360372 358.38332z" p-id="5957"></path><path d="M833.247027 451.14091c-12.656251 3.164063-25.313525-6.328126-28.477588-18.9854-16.647145-49.939389-70.644967-93.567026-69.612451-92.879364l-3.163039-2.046612c-56.957223-37.9708-110.74936-41.133839-139.226948-37.9708-12.655228 0-25.313525-6.328126-28.476565-18.984377l0 0c-3.164063-15.821337 6.329149-31.642674 22.148439-31.642674 37.9708-3.164063 104.419188-2.975774 170.867576 41.324174l6.329149 2.974751c15.821337 12.657274 69.612451 53.791114 91.761913 123.403564C858.560552 432.156534 849.06734 447.977871 833.247027 451.14091L833.247027 451.14091z" p-id="5958"></path><path d="M90.681814 360.429933c12.658298 0 25.314549-9.492188 28.477588-22.149463 12.658298-72.776514 69.613474-132.895753 82.269725-142.388964l3.165086-3.164063c82.268702-69.612451 170.866552-75.940576 208.836329-72.776514 12.658298 0 25.313525-9.492188 25.313525-22.149463l0 0c3.164063-15.821337-9.492188-31.641651-25.313525-31.641651-50.628074-3.164063-151.881153 6.328126-246.807129 85.433788-18.986423 15.820314-85.434811 82.268702-104.419188 174.030615C62.205249 341.445556 74.860477 357.26587 90.681814 360.429933L90.681814 360.429933z" p-id="5959"></path><path d="M188.772876 451.14091c12.656251 3.164063 25.313525-6.328126 28.477588-18.9854 18.9854-56.955176 60.120262-86.551238 69.612451-92.879364l3.164063-2.046612c56.9562-37.9708 110.748337-41.133839 139.225925-37.9708 12.656251 0 25.313525-6.328126 28.477588-18.984377l0 0c3.163039-15.821337-6.329149-31.642674-22.150486-31.642674-37.969776-6.328126-104.417141-5.210675-174.029592 42.252313l-3.164063 2.046612c-15.821337 12.657274-69.612451 53.791114-91.76089 123.403564C163.458327 432.156534 172.951539 447.977871 188.772876 451.14091L188.772876 451.14091z" p-id="5960"></path></svg>